<?xml version="1.0"?>
<svg xmlns:rdf="http://www.w3.org/1999/02/22-rdf-syntax-ns#" xmlns="http://www.w3.org/2000/svg" xmlns:cc="http://creativecommons.org/ns#" xmlns:xlink="http://www.w3.org/1999/xlink" xmlns:dc="http://purl.org/dc/elements/1.1/" xmlns:svg="http://www.w3.org/2000/svg" id="svg2" viewBox="0 0 200 200" version="1.1">
  <title id="title3985">winter silhoutte</title>
  <defs id="defs4">
    <filter id="filter3887" width="1.3644" y="-.052912" x="-.18218" height="1.1058" color-interpolation-filters="sRGB">
      <feGaussianBlur id="feGaussianBlur3889" stdDeviation="5.565624"/>
    </filter>
    <filter id="filter3891" color-interpolation-filters="sRGB">
      <feGaussianBlur id="feGaussianBlur3893" stdDeviation="5.565624"/>
    </filter>
    <filter id="filter3895" width="1.2441" y="-.05423" x="-.12203" height="1.1085" color-interpolation-filters="sRGB">
      <feGaussianBlur id="feGaussianBlur3897" stdDeviation="5.565624"/>
    </filter>
    <radialGradient id="radialGradient3905" gradientUnits="userSpaceOnUse" cy="513.55" cx="201.43" gradientTransform="matrix(-.57481 .21232 -.29594 -.70984 353.41 1238.6)" r="143.92">
      <stop id="stop3901" stop-color="#19aeff" offset="0"/>
      <stop id="stop3903" stop-color="#19aeff" stop-opacity="0" offset="1"/>
    </radialGradient>
    <linearGradient id="linearGradient3927" x1="153.57" gradientUnits="userSpaceOnUse" y1="725.93" gradientTransform="matrix(.56045 0 0 .51040 -27.82 659.88)" x2="159.29" y2="615.93">
      <stop id="stop3923" stop-color="#bdcdd4" offset="0"/>
      <stop id="stop3925" stop-color="#9ade00" stop-opacity="0" offset="1"/>
    </linearGradient>
    <linearGradient id="linearGradient3937" x1="159.29" gradientUnits="userSpaceOnUse" y1="729.51" gradientTransform="matrix(.53856 0 0 .66265 -24.79 548.76)" x2="161.43" y2="663.08">
      <stop id="stop3941" stop-color="#fff" offset="0"/>
      <stop id="stop3943" stop-color="#9eabb0" offset="1"/>
    </linearGradient>
    <filter id="filter3967" color-interpolation-filters="sRGB">
      <feGaussianBlur id="feGaussianBlur3969" stdDeviation="5.37594"/>
    </filter>
    <linearGradient id="linearGradient3977" x1="127.14" gradientUnits="userSpaceOnUse" y1="659.51" gradientTransform="matrix(1.0561 0 0 .96178 -131.21 402.91)" x2="298.57" y2="524.51">
      <stop id="stop3973" stop-color="#fff" offset="0"/>
      <stop id="stop3975" stop-color="#fff" offset="1"/>
    </linearGradient>
  </defs>
  <g id="layer1" transform="translate(0 -852.36)">
    <rect id="rect3949" opacity=".92195" transform="matrix(1.0561 0 0 .96178 -131.21 402.91)" height="182.14" filter="url(#filter3967)" width="163.57" y="480.22" x="137.14" stroke-width="0" fill="#0e232e"/>
    <rect id="rect3945" height="175.18" width="172.75" stroke="#bbb5b5" stroke-linecap="round" y="864.77" x="3.0651" stroke-width="1.2094" fill="url(#linearGradient3977)"/>
    <rect id="rect3020" height="156.76" width="152.75" y="871.44" x="12.495" stroke-width="0" fill="url(#radialGradient3905)"/>
    <rect id="rect3919" height="166.38" width="162.12" y="866.63" x="7.8088" stroke-width="0" fill="url(#linearGradient3927)"/>
    <path id="path3907" stroke-width="0" fill="url(#linearGradient3937)" d="m11.729 1026s12.259-8.8272 26.083-10.886c12.451-1.8548 23.198 13.255 35.687 14.673 12.956 1.4715 25.677-7.6626 38.661-6.6264 12.566 1.0028 45.663-4.2599 45.663-4.2599l7.8065 13.253-154.64 2.84z"/>
    <path id="path3869" d="m154.26 411.65c-6.8041 42.395-0.68913 52.392 0.40657 95.684-4.9821-6.9944-9.0138-16.056-12.393-25.13l2.0027-22.114-1.7166-17.676 0.69267 18.249-2.4093 15.956 0.9035 4.1385c-6.1357-16.804-10.117-33.282-13.959-36.399 8.2567 24.547 13.539 56.075 26.442 72.897l0.57221-2.5928c0.0679 6.3595 0.0297 13.35-0.16564 21.216 0.0334 14.117-0.21765 28.806-0.75291 44.626-14.474-13.691-10.585-26.335-26.502-50.684 4.0165 9.1095 7.3729 19.486 10.992 29.393l-15.088-0.54847-5.165-5.6842 5.8576 8.5263 15.45 0.54847c3.9261 10.453 8.2527 20.177 14.14 27.025-0.86655 22.188-2.2497 46.686-4.1259 75.017l13.417-0.57341s-1.7257-6.8408-2.4093-16.529c-0.72428-10.265-1.0121-21.49-1.0842-33.307 5.1827-5.4604 8.3632-12.229 10.541-19.496l-0.15058 2.0942 12.724-2.867 8.9596-7.9778-8.6133 4.5623-12.197 1.6454c2.9111-10.968 3.8445-22.838 6.0685-33.033-5.5953 14.987-9.2576 32.292-17.332 45.125 0.0322-11.67 0.20454-29.315 0.34634-42.033 0.43523 4.0387 5.0807-9.0571 5.1198-9.9224 9.6406-32.407 10.383-50.257 20.795-81.224-10.439 24.552-15.094 50.005-25.795 83.094 0.16526-23.839-0.0683-47.656-2.1232-69.058-2.2021-23.292-3.8106-27.115 0-71.227l-3.4483-1.7202zm22.437 146.97c1.6184-4.3349 3.4018-8.4853 5.4962-12.266-1.7388 1.5232-2.9013 3.4317-3.6742 5.5097-0.0859 0.23088-0.17967 0.46357-0.25599 0.69806-0.59373 1.929-1.1092 3.9639-1.566 6.0582z" transform="matrix(.54842 0 0 .59288 -22.369 632.37)" filter="url(#filter3887)" stroke-width="0" fill="#19aeff"/>
    <path id="path3871" d="m214.3 408.64c14.121 42.395 6.4302 52.962 4.1562 96.254 10.339-6.9944 18.706-4.8875 25.719-13.961l-4.1562-22.114 3.5625-17.676-1.4375 18.249 5 15.956-1.875 4.1385c12.733-16.804 20.996-33.282 28.969-36.399-17.135 24.547-28.097 44.906-54.875 61.728l-1.1875-2.5928c-0.14091 6.3595-0.0617 13.35 0.34375 21.216-0.0694 14.117 0.45169 28.806 1.5625 44.626 30.037-13.691 21.968-26.335 55-50.684-8.3354 9.1095-15.301 19.486-22.812 29.393l31.312-0.54848 10.719-5.6842-12.156 8.5263-32.062 0.54847c-8.1477 10.453-17.127 20.177-29.344 27.025 1.7983 22.188 4.6688 46.686 8.5625 75.017l-22.129-0.5734s-2.1329-6.8408-0.71429-16.529c1.5031-10.265 6.1003 5.6342 6.25-6.1828-10.756-5.4604-17.356-12.229-21.875-19.496l0.3125 2.0942-26.406-2.867-18.594-7.9778 17.875 4.5623 25.312 1.6454c-6.0414-10.968-7.9784-22.838-12.594-33.033 11.612 14.987 19.212 32.292 35.969 45.125-0.0667-11.67-0.42447-29.315-0.71875-42.033-0.90322 4.0387-10.544-9.0572-10.625-9.9224-6.4355-18.161 7.3093-48.319-14.299-79.287 21.664 24.552 15.324 64.593 24.674 81.157-0.34297-23.839-3.8582-74.78 0.40625-96.183 4.57-23.292 7.9081-27.115 0-71.227zm-37.562 174.66c-3.3585-4.3349-7.0596-8.4853-11.406-12.266 3.6085 1.5232 6.021 3.4317 7.625 5.5097 0.17822 0.23088 0.37286 0.46357 0.53125 0.69806 1.2322 1.929 2.3019 3.9639 3.25 6.0582z" transform="matrix(.54842 0 0 .59288 -22.369 632.37)" filter="url(#filter3891)" stroke-width="0" fill="#19aeff"/>
    <path id="path3873" d="m272.45 411.13c-10.158 41.364-1.0288 51.118 0.60699 93.357-7.4381-6.8243-13.457-15.666-18.502-24.519l2.99-21.576-2.5629-17.246 1.0341 17.806-3.597 15.568 1.3489 4.0379c-9.1604-16.395-15.104-32.472-20.84-35.514 12.327 23.95 20.213 54.712 39.477 71.125l0.85429-2.5298c0.10137 6.2048 0.0444 13.025-0.2473 20.7 0.0499 13.773-0.32494 28.106-1.1241 43.541-21.608-13.358-15.803-25.694-39.567-49.452 5.9965 8.888 11.007 19.013 16.411 28.679l-22.526-0.53514-7.7111-5.546 8.7452 8.319 23.066 0.53514c5.8614 10.199 12.321 19.686 21.11 26.368-1.2937 21.648-3.3587 45.551-6.1599 73.192l20.031-0.55947s-2.5765-6.6744-3.597-16.127c-1.0813-10.016-1.511-20.968-1.6186-32.498 7.7376-5.3276 12.486-11.932 15.737-19.022l-0.22481 2.0433 18.997-2.7973 13.376-7.7838-12.859 4.4514-18.21 1.6054c4.3462-10.701 5.7397-22.283 9.06-32.23-8.3535 14.623-13.821 31.507-25.876 44.027 0.048-11.386 0.30536-28.602 0.51707-41.011 0.64978 3.9405 7.5853-8.8369 7.6436-9.6812 14.393-31.619 2.6444-14.844 18.19-45.058-15.585 23.955-9.6775 14.598-25.653 46.883 0.24673-23.259-0.10203-46.497-3.1699-67.379-3.2877-22.725-5.6891-26.456 0-69.495zm33.497 143.39c2.4161-4.2295 5.0787-8.279 8.2057-11.968-2.596 1.4861-4.3315 3.3482-5.4854 5.3757-0.12821 0.22528-0.26824 0.45231-0.38218 0.68109-0.88643 1.8821-1.656 3.8675-2.3381 5.9108z" transform="matrix(.54842 0 0 .59288 -22.369 632.37)" filter="url(#filter3895)" stroke-width="0" fill="#19aeff"/>
    <path id="path2996" stroke-width="0" fill="#fff" d="m62.232 876.43c-3.7315 25.885-0.37794 31.989 0.22297 58.422-2.7323-4.2706-4.9434-9.8036-6.7965-15.344l1.0983-13.502-0.94143-10.792 0.37987 11.143-1.3213 9.7421 0.4955 2.5268c-3.365-10.26-5.5484-20.321-7.6554-22.224 4.5282 14.988 7.4249 34.238 14.501 44.509l0.31381-1.5831c0.0371 3.8829 0.0163 8.1509-0.0908 12.954 0.0183 8.6192-0.11936 17.588-0.41291 27.247-7.9376-8.3593-5.8052-16.079-14.534-30.946 2.2027 5.562 4.0435 11.898 6.0285 17.947l-8.2747-0.33487-2.8326-3.4706 3.2124 5.2059 8.473 0.33488c2.1531 6.3824 4.5259 12.319 7.7545 16.501-0.47524 13.547-1.2338 28.505-2.2627 45.803l7.3581-0.3501s-0.94644-4.1768-1.3213-10.092c-0.39722-6.2677-0.55503-13.122-0.59459-20.337 2.8423-3.3339 4.5865-7.4669 5.7808-11.904l-0.0826 1.2786 6.9782-1.7505 4.9137-4.871-4.7237 2.7856-6.6892 1.0046c1.5965-6.6966 2.1084-13.944 3.3281-20.169-3.0686 9.1509-5.0771 19.717-9.5052 27.552 0.0176-7.1253 0.11216-17.899 0.18993-25.664 0.23869 2.4659 2.7864-5.53 2.8078-6.0584 5.2871-19.787 5.6943-30.685 11.405-49.593-5.7251 14.991-8.2779 30.532-14.146 50.735 0.0906-14.555-0.0374-29.097-1.1644-42.165-1.2077-14.221-2.0898-16.556 0-43.489l-1.8911-1.0503zm12.305 89.734c0.88752-2.6468 1.8656-5.1809 3.0142-7.4892-0.95357 0.93002-1.5911 2.0953-2.015 3.3641-0.0471 0.14099-0.0985 0.28305-0.14038 0.42622-0.32561 1.1778-0.6083 2.4202-0.85884 3.6989z"/>
    <path id="path3016" stroke-width="0" fill="#fff" d="m95.157 874.65c7.744 25.136 3.5264 31.4 2.2794 57.067 5.6703-4.1469 10.259-2.8977 14.105-8.2774l-2.2794-13.111 1.9538-10.48-0.78835 10.82 2.7421 9.4598-1.0283 2.4536c6.9832-9.9629 11.514-19.732 15.887-21.58-9.3972 14.554-15.409 26.624-30.095 36.598l-0.65124-1.5372c-0.0773 3.7704-0.0338 7.9148 0.18851 12.579-0.0382 8.3695 0.24772 17.079 0.85691 26.458 16.473-8.1171 12.047-15.613 30.163-30.05-4.5713 5.4009-8.3913 11.553-12.511 17.427l17.172-0.32517 5.8784-3.3701-6.6667 5.0551-17.584 0.32518c-4.4684 6.1975-9.3926 11.962-16.093 16.023 0.98625 13.155 2.5605 32.488 4.6959 49.285l-12.513-1.027c4.4494-0.5121 3.3823-14.293 3.4131-17.588-5.8986-3.2373-9.5184-7.2505-11.997-11.559l0.17137 1.2416-14.482-1.6998-10.197-4.7299 9.803 2.7049 13.882 0.97555c-3.3132-6.5026-4.3755-13.541-6.9067-19.585 6.3681 8.8858 10.536 19.146 19.726 26.754-0.0366-6.9189-0.2328-17.38-0.39418-24.921-0.49534 2.3945-5.7825-5.3698-5.827-5.8828-3.5293-10.768 4.0086-28.648-7.8419-47.008 11.881 14.557 8.4041 38.296 13.532 48.116-0.1881-14.133-2.1159-44.336 0.22279-57.025 2.5063-13.809 4.337-16.076 0-42.229zm-20.6 103.55c-1.8419-2.5701-3.8716-5.0308-6.2554-7.2723 1.979 0.90308 3.3021 2.0346 4.1817 3.2666 0.0977 0.13691 0.20448 0.27486 0.29135 0.41388 0.67574 1.1437 1.2624 2.3501 1.7824 3.5918z"/>
    <path id="path3018" stroke-width="0" fill="#fff" d="m127.05 876.13c-5.571 24.524-0.56425 30.307 0.33287 55.35-4.0792-4.046-7.3802-9.2881-10.147-14.537l1.6398-12.792-1.4055-10.225 0.56713 10.557-1.9727 9.2298 0.73976 2.394c-5.0238-9.7206-8.2835-19.252-11.429-21.056 6.7604 14.2 11.085 32.438 21.65 42.169l0.46852-1.4999c0.0555 3.6787 0.0244 7.7223-0.13562 12.273 0.0273 8.1659-0.1782 16.663-0.61645 25.815-11.85-7.9197-8.667-15.234-21.699-29.319 3.2886 5.2696 6.0367 11.272 9.0003 17.003l-12.354-0.31728-4.2289-3.2881 4.796 4.9322 12.65 0.31727c3.2145 6.0468 6.757 11.672 11.577 15.633-0.7095 12.835 1.1755 31.128-0.36076 47.517l9.8538 7.5687s-3.2989-15.98-3.8586-21.584c-0.59301-5.9382-0.82865-12.431-0.8877-19.267 4.2435-3.1586 6.8475-7.0743 8.6304-11.278l-0.12329 1.2114 10.418-1.6585 7.3359-4.6149-7.0523 2.6392-9.9866 0.95182c2.3835-6.3445 3.1478-13.211 4.9687-19.109-4.5813 8.6697-7.5799 18.68-14.191 26.103 0.0263-6.7506 0.16747-16.958 0.28358-24.315 0.35634 2.3362 4.1599-5.2393 4.1919-5.7398 7.8934-18.747 1.4502-8.8008 9.9755-26.714-8.5474 14.203-5.3074 8.655-14.069 27.796 0.13531-13.79-0.056-27.567-1.7384-39.948-1.803-13.473-3.12-15.685 0-41.202zm18.37 85.015c1.325-2.5076 2.7852-4.9085 4.5002-7.0954-1.4237 0.8811-2.3755 1.9851-3.0083 3.1872-0.0703 0.13358-0.1471 0.26818-0.20959 0.40382-0.48613 1.1158-0.90817 2.293-1.2822 3.5044z"/>
  </g>
  <metadata>
    <rdf:RDF>
      <cc:Work>
        <dc:format>image/svg+xml</dc:format>
        <dc:type rdf:resource="http://purl.org/dc/dcmitype/StillImage"/>
        <cc:license rdf:resource="http://creativecommons.org/licenses/publicdomain/"/>
        <dc:publisher>
          <cc:Agent rdf:about="http://openclipart.org/">
            <dc:title>Openclipart</dc:title>
          </cc:Agent>
        </dc:publisher>
        <dc:title>winter silhoutte</dc:title>
        <dc:date>2010-12-14T06:06:14</dc:date>
        <dc:description>christmas, clip art, clipart, holidays2010, landscape, painting, portrait, season, snow, trees, window, winter, </dc:description>
        <dc:source>http://openclipart.org/detail/100651/winter-silhoutte-by-netalloy-100651</dc:source>
        <dc:creator>
          <cc:Agent>
            <dc:title>netalloy</dc:title>
          </cc:Agent>
        </dc:creator>
        <dc:subject>
          <rdf:Bag>
            <rdf:li>christmas</rdf:li>
            <rdf:li>clip art</rdf:li>
            <rdf:li>clipart</rdf:li>
            <rdf:li>holidays2010</rdf:li>
            <rdf:li>landscape</rdf:li>
            <rdf:li>painting</rdf:li>
            <rdf:li>portrait</rdf:li>
            <rdf:li>season</rdf:li>
            <rdf:li>snow</rdf:li>
            <rdf:li>trees</rdf:li>
            <rdf:li>window</rdf:li>
            <rdf:li>winter</rdf:li>
          </rdf:Bag>
        </dc:subject>
      </cc:Work>
      <cc:License rdf:about="http://creativecommons.org/licenses/publicdomain/">
        <cc:permits rdf:resource="http://creativecommons.org/ns#Reproduction"/>
        <cc:permits rdf:resource="http://creativecommons.org/ns#Distribution"/>
        <cc:permits rdf:resource="http://creativecommons.org/ns#DerivativeWorks"/>
      </cc:License>
    </rdf:RDF>
  </metadata>
</svg>
